<?xml version="1.0" standalone="no"?>
<!DOCTYPE svg PUBLIC "-//W3C//DTD SVG 20010904//EN"
 "http://www.w3.org/TR/2001/REC-SVG-20010904/DTD/svg10.dtd">
<svg version="1.0" xmlns="http://www.w3.org/2000/svg"
 width="500.000000pt" height="500.000000pt" viewBox="0 0 500.000000 500.000000"
 preserveAspectRatio="xMidYMid meet">
<metadata>
Created by potrace 1.11, written by Peter Selinger 2001-2013
</metadata>
<g transform="translate(0.000000,500.000000) scale(0.100000,-0.100000)"
fill="#000000" stroke="none">
<path d="M2367 4994 c-1 -1 -36 -4 -77 -7 -234 -17 -505 -85 -745 -185 -390
-163 -708 -403 -993 -749 -129 -156 -302 -459 -377 -658 -60 -159 -124 -403
-139 -530 -4 -27 -10 -81 -15 -120 -10 -74 -7 -486 3 -545 4 -19 11 -65 17
-102 13 -79 12 -77 28 -153 22 -108 95 -339 113 -360 4 -5 8 -15 8 -23 0 -8
33 -83 74 -166 183 -376 459 -700 804 -945 156 -111 350 -216 512 -278 36 -14
74 -29 85 -34 76 -32 341 -100 454 -115 25 -3 55 -9 66 -11 11 -3 142 -7 290
-8 284 -3 397 6 575 46 400 92 775 278 1074 533 70 60 238 225 286 282 213
251 384 559 483 869 27 83 46 153 53 194 3 12 11 51 19 85 26 113 30 180 30
481 0 311 -3 356 -36 509 -47 221 -103 384 -204 591 -62 128 -197 348 -257
420 -9 11 -40 49 -69 85 -30 36 -98 110 -154 165 -257 256 -568 457 -885 570
-58 20 -112 40 -120 45 -9 4 -31 11 -50 16 -45 10 -39 9 -85 22 -22 6 -51 13
-65 16 -14 3 -36 7 -50 10 -40 9 -131 24 -180 30 -25 3 -67 9 -95 12 -45 6
-373 13 -378 8z m204 -718 c19 -8 42 -23 50 -33 44 -50 43 -29 45 -858 1 -434
2 -793 3 -797 0 -4 31 -25 69 -46 37 -21 168 -98 292 -169 124 -72 241 -140
260 -151 32 -18 261 -150 335 -192 17 -10 80 -46 140 -80 127 -73 153 -93 171
-137 21 -48 17 -91 -11 -138 -40 -69 -127 -95 -196 -59 -17 8 -128 72 -247
141 -119 69 -242 140 -272 156 -30 17 -66 38 -80 47 -14 9 -99 59 -190 111
-91 52 -174 99 -185 106 -11 7 -27 16 -35 20 -8 4 -49 27 -90 51 -41 25 -95
56 -120 70 -79 43 -115 71 -135 104 -19 32 -19 58 -20 882 0 622 3 859 11 883
30 86 120 124 205 89z"/>
</g>
</svg>
