<?xml version="1.0" encoding="utf-8"?>
<!-- Generator: Adobe Illustrator 16.2.1, SVG Export Plug-In . SVG Version: 6.00 Build 0)  -->
<!DOCTYPE svg PUBLIC "-//W3C//DTD SVG 1.1//EN" "http://www.w3.org/Graphics/SVG/1.1/DTD/svg11.dtd">
<svg version="1.1" id="Layer_1" xmlns="http://www.w3.org/2000/svg" xmlns:xlink="http://www.w3.org/1999/xlink" x="0px" y="0px"
	 width="460.434px" height="200px" viewBox="0 0 460.434 200" enable-background="new 0 0 460.434 200" xml:space="preserve">
<path d="M368.804,108.565c-1.893,0-3.434-1.541-3.434-3.433V85.401c0-6.872-5.589-12.461-12.459-12.461
	c-6.872,0-12.461,5.59-12.461,12.461v54.144l0,0c0,1.895-1.542,3.434-3.435,3.434s-3.433-1.539-3.433-3.434V55.309
	c0-6.871-5.59-12.46-12.461-12.46s-12.461,5.59-12.461,12.46v103.875l0,0c0,1.893-1.541,3.434-3.435,3.434
	c-1.893,0-3.433-1.541-3.433-3.434V74.947c0-6.871-5.59-12.461-12.461-12.461s-12.461,5.59-12.461,12.461v89.252l0,0
	c0,1.894-1.541,3.434-3.434,3.434c-1.894,0-3.434-1.54-3.434-3.434V49.87c0-6.871-5.59-12.46-12.462-12.46
	c-6.87,0-12.46,5.59-12.46,12.46v108.566c0,1.893-1.54,3.434-3.433,3.434s-3.434-1.541-3.434-3.434V26.465
	c0-6.871-5.59-12.46-12.461-12.46s-12.46,5.589-12.46,12.46v161.074c0,1.894-1.541,3.434-3.433,3.434
	c-1.894,0-3.434-1.54-3.434-3.434V12.461C206.429,5.59,200.839,0,193.968,0c-6.872,0-12.461,5.59-12.461,12.461v143.891
	c0,1.894-1.54,3.434-3.433,3.434s-3.434-1.54-3.434-3.434V38.067c0-6.871-5.589-12.461-12.461-12.461
	c-6.871,0-12.46,5.59-12.46,12.461v82.524c0,1.893-1.541,3.434-3.434,3.434s-3.434-1.541-3.434-3.434V59.595
	c0-6.871-5.59-12.461-12.461-12.461c-6.87,0-12.46,5.59-12.46,12.461v55.981c0,1.893-1.541,3.434-3.434,3.434
	c-1.894,0-3.434-1.541-3.434-3.434h-0.107V89.688c0-6.871-5.59-12.461-12.46-12.461c-6.872,0-12.461,5.59-12.461,12.461v15.445
	c0,1.892-1.54,3.433-3.433,3.433H0v9.026h82.602c6.732,0,12.231-5.367,12.45-12.047h0.011V89.688c0-1.894,1.54-3.434,3.434-3.434
	c1.893,0,3.433,1.54,3.433,3.434v25.889h0.108c0,6.871,5.59,12.461,12.461,12.461s12.461-5.59,12.461-12.461V59.595
	c0-1.893,1.54-3.433,3.433-3.433c1.893,0,3.434,1.54,3.434,3.433v60.997c0,6.871,5.589,12.461,12.461,12.461
	c6.652,0,12.103-5.239,12.444-11.809h0.017V38.067c0-1.893,1.541-3.434,3.433-3.434c1.893,0,3.434,1.541,3.434,3.434v118.284
	c0,6.871,5.589,12.463,12.461,12.463c6.501,0,11.854-5.008,12.41-11.367h0.051V12.461c0-1.893,1.54-3.434,3.434-3.434
	c1.893,0,3.433,1.541,3.433,3.434v175.078c0,6.871,5.59,12.461,12.461,12.461c6.52,0,11.882-5.033,12.414-11.419h0.047V26.465
	c0-1.893,1.54-3.434,3.433-3.434c1.893,0,3.434,1.541,3.434,3.434v132.023h0.001c0.028,6.848,5.606,12.408,12.46,12.408
	c6.619,0,12.047-5.188,12.437-11.711h0.024V49.87c0-1.893,1.539-3.433,3.432-3.433c1.894,0,3.435,1.54,3.435,3.433V164.2l0,0
	c0,6.871,5.59,12.46,12.461,12.46s12.461-5.59,12.461-12.461h0.001V74.947c0-1.893,1.54-3.433,3.433-3.433
	c1.894,0,3.434,1.54,3.434,3.433v84.237c0,6.871,5.59,12.462,12.46,12.462c6.73,0,12.227-5.362,12.451-12.038h0.012V55.309
	c0-1.893,1.54-3.433,3.433-3.433s3.434,1.541,3.434,3.433v84.238l0,0c0,6.871,5.589,12.461,12.46,12.461
	c6.872,0,12.461-5.591,12.461-12.463h0.001V85.401c0-1.894,1.541-3.434,3.434-3.434c1.892,0,3.433,1.54,3.433,3.434v20.144h0.01
	c0.22,6.68,5.719,12.047,12.45,12.047h91.63v-9.026H368.804z"/>
</svg>
